<?xml version="1.0" ?><svg enable-background="new 0 0 512 512" id="Layer_1" version="1.1" viewBox="0 0 512 512" xml:space="preserve" xmlns="http://www.w3.org/2000/svg" xmlns:xlink="http://www.w3.org/1999/xlink"><g><g><linearGradient gradientUnits="userSpaceOnUse" id="SVGID_1_" x1="0.0000038" x2="512" y1="256" y2="256"><stop offset="0" style="stop-color:#A364AB"/><stop offset="1" style="stop-color:#8C3D96"/></linearGradient><circle cx="256" cy="256" fill="url(#SVGID_1_)" r="256"/><linearGradient gradientUnits="userSpaceOnUse" id="SVGID_2_" x1="42.6666679" x2="469.3333435" y1="256.0005188" y2="256.0005188"><stop offset="0" style="stop-color:#8C3D96"/><stop offset="1" style="stop-color:#A364AB"/></linearGradient><path d="M256,469.3338623c-117.6314697,0-213.3333282-95.7023926-213.3333282-213.3333435    c0-117.6314545,95.7018585-213.333313,213.3333282-213.333313c117.636261,0,213.3333435,95.7018661,213.3333435,213.333313    C469.3333435,373.6314697,373.636261,469.3338623,256,469.3338623z" fill="url(#SVGID_2_)"/></g><g><polygon opacity="0.3" points="341.272522,278.7200012 334.3471985,271.7936096 268.8970642,337.2421265 268.8970642,144     259.1007996,144 259.1007996,337.2421265 193.6533356,271.7936096 186.7269287,278.7200012 263.9989319,355.9920044   "/><rect height="9.7962666" opacity="0.3" width="203.4293365" x="162.2853394" y="374.203186"/></g><g><polygon fill="#FFFFFF" points="333.272522,270.7200012 326.3471985,263.7936096 260.8970642,329.2421265 260.8970642,136     251.1007996,136 251.1007996,329.2421265 185.6533356,263.7936096 178.7269287,270.7200012 255.9989319,347.9920044   "/><rect fill="#FFFFFF" height="9.7962666" width="203.4293365" x="154.2853394" y="366.203186"/></g></g></svg>