<svg xmlns="http://www.w3.org/2000/svg"  viewBox="0 0 64 64" width="128px" height="128px"><linearGradient id="ay15mXZwsMgjHf8cOP0e8a" x1="32" x2="32" y1="3.75" y2="59.299" gradientUnits="userSpaceOnUse" spreadMethod="reflect"><stop offset="0" stop-color="#1a6dff"/><stop offset="1" stop-color="#c822ff"/></linearGradient><path fill="url(#ay15mXZwsMgjHf8cOP0e8a)" d="M50,11H35V8.975c0-0.938-0.432-1.801-1.185-2.367c-0.763-0.575-1.73-0.755-2.651-0.488 l-18.561,5.342C10.482,12.072,9,14.025,9,16.211v31.578c0,2.187,1.482,4.14,3.603,4.75l18.561,5.342 c0.28,0.081,0.564,0.12,0.845,0.12c0.645,0,1.274-0.208,1.806-0.608C34.568,56.827,35,55.963,35,55.026V53h15c2.757,0,5-2.243,5-5 V16C55,13.244,52.757,11,50,11z M33,55.026c0,0.304-0.142,0.584-0.388,0.77c-0.257,0.193-0.583,0.253-0.896,0.164l-18.56-5.342 C11.887,50.252,11,49.089,11,47.789V16.211c0-1.3,0.887-2.463,2.156-2.828l18.56-5.342c0.312-0.09,0.638-0.03,0.896,0.164 C32.858,8.391,33,8.671,33,8.975V11v42V55.026z M53,48c0,1.654-1.346,3-3,3H35v-6h14v-2H35v-4h14v-2H35v-4h14v-2H35v-4h14v-2H35v-4 h14v-2H35v-6h15c1.654,0,3,1.346,3,3V48z"/><linearGradient id="ay15mXZwsMgjHf8cOP0e8b" x1="22" x2="22" y1="23.833" y2="41.5" gradientUnits="userSpaceOnUse" spreadMethod="reflect"><stop offset="0" stop-color="#6dc7ff"/><stop offset="1" stop-color="#e6abff"/></linearGradient><path fill="url(#ay15mXZwsMgjHf8cOP0e8b)" d="M16.869,40l-3.3-14h2.62l1.28,6.265c0.34,1.767,0.66,2.735,0.88,4.735h0.04 c0.22-2,0.6-2.925,0.98-4.756L20.83,26h2.581l1.34,5.883c0.34,1.724,0.62,3.117,0.82,4.117h0.04c0.24-1,0.56-2.458,0.92-4.224 l1.4-5.776h2.5l-3.621,14H24.17l-1.4-6.61C22.43,31.731,22.19,30,22.03,29h-0.04c-0.24,1-0.5,2.731-0.9,4.39L19.529,40H16.869z"/></svg>