<svg xmlns="http://www.w3.org/2000/svg"  viewBox="0 0 48 48" width="144px" height="144px"><path fill="#ddbaff" d="M42.256,6H15.744C14.781,6,14,6.781,14,7.744v7.259h30V7.744C44,6.781,43.219,6,42.256,6z"/><path fill="#a64aff" d="M14,15.003h30v9.002H14V15.003z"/><path fill="#6c19ff" d="M14,24.005h30v9.05H14V24.005z"/><path fill="#2100c4" d="M14,33v7.256C14,41.219,14.781,42,15.743,42h26.513C43.219,42,44,41.219,44,40.256v-7.202L14,33z"/><path fill="#a64aff" d="M6.513,15H14v18H6.513C5.678,33,5,32.322,5,31.487V16.513C5,15.678,5.678,15,6.513,15z"/><path fill="#2100c4" d="M14,24v9h7.487C22.322,33,23,32.322,23,31.487V24H14z"/><path fill="#6c19ff" d="M14,24v-9h7.487C22.322,15,23,15.678,23,16.513V24H14z"/><path fill="#fff" d="M18.403,19l-1.546,7.264L15.144,19h-2.187l-1.767,7.489L9.597,19H7.641l2.344,10h2.352l1.713-7.689 L15.764,29h2.251l2.344-10H18.403z"/></svg>