<svg xmlns="http://www.w3.org/2000/svg"  viewBox="0 0 64 64" width="256px" height="256px"><linearGradient id="X9nSnqbzRgmx~LIizmN2Qa" x1="40" x2="40" y1="20" y2="36" gradientUnits="userSpaceOnUse" spreadMethod="reflect"><stop offset="0" stop-color="#6dc7ff"/><stop offset="1" stop-color="#e6abff"/></linearGradient><path fill="url(#X9nSnqbzRgmx~LIizmN2Qa)" d="M38,28v-8c-1.459,0-2.822,0.397-4,1.079v13.842C35.178,35.603,36.541,36,38,36 c4.418,0,8-3.582,8-8H38z"/><linearGradient id="X9nSnqbzRgmx~LIizmN2Qb" x1="32" x2="32" y1="3.75" y2="59.299" gradientUnits="userSpaceOnUse" spreadMethod="reflect"><stop offset="0" stop-color="#1a6dff"/><stop offset="1" stop-color="#c822ff"/></linearGradient><path fill="url(#X9nSnqbzRgmx~LIizmN2Qb)" d="M50,11H35V8.975c0-0.938-0.432-1.801-1.185-2.367c-0.763-0.575-1.73-0.755-2.651-0.488 l-18.561,5.342C10.482,12.072,9,14.025,9,16.211v31.578c0,2.187,1.482,4.14,3.603,4.75l18.561,5.342 c0.28,0.081,0.564,0.12,0.845,0.12c0.645,0,1.274-0.208,1.806-0.608C34.568,56.827,35,55.963,35,55.026V53h15c2.757,0,5-2.243,5-5 V16C55,13.244,52.757,11,50,11z M33,11v42v2.026c0,0.304-0.142,0.584-0.388,0.77c-0.257,0.193-0.583,0.253-0.896,0.164l-18.56-5.342 C11.887,50.252,11,49.089,11,47.789V16.211c0-1.3,0.887-2.463,2.156-2.828l18.56-5.342c0.312-0.09,0.638-0.03,0.896,0.164 C32.858,8.391,33,8.671,33,8.975V11z M53,48c0,1.654-1.346,3-3,3H35v-5h13v-2H35v-2h13v-2H35V13h15c1.654,0,3,1.346,3,3V48z"/><linearGradient id="X9nSnqbzRgmx~LIizmN2Qc" x1="22.5" x2="22.5" y1="24" y2="40" gradientUnits="userSpaceOnUse" spreadMethod="reflect"><stop offset="0" stop-color="#6dc7ff"/><stop offset="1" stop-color="#e6abff"/></linearGradient><path fill="url(#X9nSnqbzRgmx~LIizmN2Qc)" d="M23.5,26c1.379,0,2.5,1.122,2.5,2.5S24.879,31,23.5,31H19v-5H23.5 M23.5,24H17v16h2v-7h4.5 c2.485,0,4.5-2.015,4.5-4.5S25.985,24,23.5,24L23.5,24z"/><linearGradient id="X9nSnqbzRgmx~LIizmN2Qd" x1="44" x2="44" y1="18" y2="33" gradientUnits="userSpaceOnUse" spreadMethod="reflect"><stop offset="0" stop-color="#6dc7ff"/><stop offset="1" stop-color="#e6abff"/></linearGradient><path fill="url(#X9nSnqbzRgmx~LIizmN2Qd)" d="M40,18v8h8C48,21.582,44.418,18,40,18z"/></svg>