<?xml version="1.0" ?><svg fill="none" height="1080" viewBox="0 0 1080 1080" width="1080" xmlns="http://www.w3.org/2000/svg"><path d="M694.195 431.446C674.949 431.446 656.488 423.783 642.875 410.139C629.262 396.495 621.612 377.987 621.612 358.687C621.612 357.355 621.697 355.843 621.797 354.068C621.813 353.79 621.829 353.504 621.845 353.212C621.96 351.145 622.073 348.813 622.019 346.503C621.917 342.198 621.241 336.454 617.33 332.534C613.544 328.74 607.742 327.662 603.234 327.259C599.613 326.935 595.74 326.99 592.731 327.033C591.826 327.046 590.999 327.057 590.28 327.057C589.561 327.057 588.742 327.046 587.852 327.033C584.92 326.99 581.218 326.936 577.772 327.261C573.4 327.674 567.912 328.785 564.171 332.534C560.26 336.454 559.585 342.198 559.483 346.503C559.428 348.813 559.541 351.145 559.656 353.212C559.672 353.504 559.688 353.789 559.704 354.068C559.804 355.843 559.889 357.355 559.889 358.687V617.884C559.889 632.276 555.631 646.345 547.654 658.311C539.677 670.276 528.34 679.6 515.079 685.106C501.817 690.611 487.225 692.051 473.148 689.245C459.07 686.438 446.137 679.511 435.986 669.336C425.834 659.161 418.919 646.196 416.118 632.08C413.316 617.964 414.754 603.333 420.249 590.036C425.744 576.74 435.049 565.377 446.985 557.384C458.921 549.39 472.953 545.124 487.306 545.124C488.47 545.124 489.753 545.173 491.224 545.228C491.778 545.249 492.359 545.271 492.97 545.291C495.115 545.364 497.512 545.415 499.893 545.297C504.307 545.078 510.146 544.248 514.019 540.367C517.888 536.489 518.684 530.756 518.872 526.402C518.973 524.065 518.906 521.711 518.822 519.608C518.802 519.099 518.781 518.611 518.761 518.142C518.695 516.591 518.637 515.244 518.637 514.026C518.637 513.685 518.638 513.329 518.639 512.96C518.647 509.773 518.657 505.628 518.127 501.677C517.551 497.379 516.223 492.258 512.608 488.634C508.891 484.909 503.65 483.811 499.395 483.423C496.218 483.134 492.751 483.198 489.943 483.25C488.972 483.268 488.08 483.285 487.306 483.285C460.74 483.285 434.772 491.181 412.685 505.972C390.599 520.763 373.386 541.785 363.222 566.379C353.058 590.972 350.399 618.033 355.58 644.14C360.762 670.248 373.551 694.23 392.333 713.055C411.116 731.88 435.047 744.701 461.102 749.895C487.157 755.09 514.164 752.424 538.706 742.235C563.249 732.046 584.224 714.792 598.98 692.658C613.736 670.524 621.612 644.502 621.612 617.884V471.99C643.165 485.982 668.386 493.423 694.208 493.285C695.574 493.286 697.126 493.383 698.958 493.497C699.159 493.51 699.363 493.523 699.571 493.536C701.595 493.661 703.883 493.791 706.15 493.752C710.396 493.68 716.05 493.034 719.968 489.107C723.656 485.41 724.938 479.833 725.493 475.339C726.017 471.108 726.006 466.685 725.999 463.431C725.998 463.06 725.997 462.704 725.997 462.366C725.997 462.025 725.998 461.669 725.999 461.3C726.006 458.109 726.017 453.952 725.487 449.988C724.912 445.681 723.587 440.539 719.968 436.912L716.428 440.444L719.968 436.912C716.243 433.179 710.867 432.058 706.541 431.645C703.168 431.322 699.535 431.376 696.635 431.42C695.743 431.433 694.92 431.446 694.195 431.446Z" fill="black" stroke="url(#paint0_linear)" stroke-width="10"/><rect height="760" rx="380" stroke="url(#paint1_linear)" stroke-width="27" width="760" x="157.5" y="159.5"/><defs><linearGradient gradientUnits="userSpaceOnUse" id="paint0_linear" x1="472.73" x2="630.248" y1="467.006" y2="671.545"><stop offset="0.00225797" stop-color="#45CECC"/><stop offset="1" stop-color="#FC4036"/></linearGradient><linearGradient gradientUnits="userSpaceOnUse" id="paint1_linear" x1="805" x2="166.161" y1="819" y2="96.7619"><stop stop-color="#FF3D33"/><stop offset="1" stop-color="#17F2F2"/></linearGradient></defs></svg>